<svg xmlns="http://www.w3.org/2000/svg" viewBox="0 0 34.35 34.36"><defs><style>.cls-1{fill:#040000;}</style></defs><g id="圖層_2" data-name="圖層 2"><g id="图层_1" data-name="图层 1"><path class="cls-1" d="M16.57,34.36c-.35,0-.69,0-1-.07l.07-.74c.32,0,.64.05,1,.06Zm2,0-.07-.75c.33,0,.66-.06,1-.11l.1.74C19.29,34.24,19,34.28,18.61,34.31ZM13.53,34q-.51-.1-1-.24l.2-.73c.31.09.63.17.95.24Zm8.09-.2-.19-.72.94-.28.23.71C22.28,33.6,22,33.69,21.62,33.78Zm-11-.71-.93-.42L10,32l.89.4Zm13.9-.34-.32-.68.87-.44.36.65C25.11,32.43,24.81,32.58,24.5,32.73ZM7.89,31.65c-.29-.18-.57-.38-.85-.58l.45-.6c.26.19.53.37.8.55Zm19.25-.47-.44-.61c.27-.19.53-.39.78-.59l.47.58C27.69,30.77,27.42,31,27.14,31.18ZM5.47,29.77c-.25-.23-.49-.47-.73-.71l.54-.52c.23.23.46.46.7.68Zm24-.58-.54-.53c.23-.23.45-.47.67-.72l.56.49C29.93,28.69,29.7,28.94,29.46,29.19Zm-26-1.69c-.21-.27-.4-.55-.59-.84l.62-.41c.18.27.37.54.57.8Zm28-.69-.62-.42c.18-.27.36-.54.52-.82L32,26C31.77,26.24,31.59,26.53,31.4,26.81ZM1.8,24.9c-.15-.31-.29-.61-.43-.93l.69-.29c.13.3.27.59.41.88Zm31.08-.77-.68-.3c.13-.3.25-.6.37-.91l.7.27C33.15,23.51,33,23.82,32.88,24.13ZM.68,22.05c-.1-.32-.18-.65-.26-1l.73-.17c.07.32.16.64.25.95Zm33.19-.82-.73-.17c.08-.32.14-.64.2-1l.74.13C34,20.57,34,20.9,33.87,21.23ZM.08,19.05c0-.34-.06-.68-.08-1l.75,0c0,.33,0,.66.08,1Zm34.24-.85-.75,0c0-.32,0-.65,0-1s0-.43,0-.65l.75,0c0,.23,0,.46,0,.68S34.34,17.87,34.32,18.2ZM.77,16,0,16c0-.34.06-.68.1-1l.74.1C.82,15.39.79,15.71.77,16ZM33.4,14.59c-.06-.32-.12-.64-.19-1l.74-.16c.07.33.13.66.19,1ZM1.23,13.15.5,13c.08-.33.18-.66.28-1l.72.23C1.4,12.52,1.31,12.83,1.23,13.15Zm31.45-1.4c-.11-.31-.22-.61-.35-.91l.69-.29c.13.31.26.63.37.95ZM2.2,10.38l-.69-.31L2,9.15l.66.36C2.48,9.79,2.33,10.09,2.2,10.38ZM31.47,9.09c-.16-.29-.33-.56-.51-.84l.63-.41c.19.29.36.58.53.88ZM3.64,7.84,3,7.41a9.68,9.68,0,0,1,.61-.82l.59.46C4,7.3,3.83,7.57,3.64,7.84ZM29.81,6.68c-.21-.25-.43-.49-.65-.73l.55-.52c.23.25.45.51.67.77ZM5.52,5.58,5,5.06c.24-.25.49-.48.74-.71l.5.56C6,5.13,5.75,5.35,5.52,5.58Zm22.22-1c-.25-.21-.5-.41-.77-.6l.45-.61c.28.21.54.42.8.64Zm-20-.9-.43-.61c.28-.2.57-.38.86-.56l.39.64C8.3,3.34,8,3.52,7.76,3.7Zm17.58-.78c-.28-.16-.57-.31-.86-.46l.33-.67q.47.22.9.48Zm-15-.67L10,1.56c.31-.14.62-.27.94-.39l.27.69Q10.75,2,10.3,2.25ZM22.68,1.7q-.46-.16-.93-.3L22,.68c.33.09.65.2,1,.31Zm-9.62-.43L12.87.54c.33-.09.66-.16,1-.23l.14.74C13.69,1.11,13.37,1.18,13.06,1.27ZM19.85,1c-.32-.06-.65-.1-1-.13L19,.09c.34,0,.68.08,1,.14ZM16,.79,15.89,0c.34,0,.68,0,1,0V.75C16.6.75,16.27.77,16,.79Z"/></g></g></svg>