<svg xmlns="http://www.w3.org/2000/svg" viewBox="0 0 128.03 16.12"><defs><style>.cls-1{fill:#3e3a39;}</style></defs><g id="圖層_2" data-name="圖層 2"><g id="图层_1" data-name="图层 1"><path class="cls-1" d="M5.06,15.07a3.31,3.31,0,0,0,2.16-.76,2.51,2.51,0,0,0,.93-2.05,2.82,2.82,0,0,0-.8-2.15A6.88,6.88,0,0,0,5.06,8.78a14.59,14.59,0,0,1-1.67-.72A9.41,9.41,0,0,1,2,7.15,3.87,3.87,0,0,1,.91,5.88,3.51,3.51,0,0,1,.53,4.24,3.46,3.46,0,0,1,1.36,2,4.84,4.84,0,0,1,3.43.5,6.41,6.41,0,0,1,5.69.09,11.09,11.09,0,0,1,8.21.35,4.44,4.44,0,0,1,9.69.89l.38.28.06.07a11.54,11.54,0,0,0-.67,2.4l-.29,0A4.61,4.61,0,0,0,7.61,1.84a3.77,3.77,0,0,0-2.14-.7,4,4,0,0,0-1.61.28A2,2,0,0,0,3,2.3a2.59,2.59,0,0,0-.36,1.28,2.71,2.71,0,0,0,.29,1.25,2.49,2.49,0,0,0,.85.92,8.22,8.22,0,0,0,1,.56,9.93,9.93,0,0,0,1.09.43q5,1.6,5,4.8a3.94,3.94,0,0,1-1.71,3.32,7.11,7.11,0,0,1-4.32,1.26,12.27,12.27,0,0,1-2.56-.26,7.51,7.51,0,0,1-1.71-.54L.05,15,0,15A19.8,19.8,0,0,0,.62,12.5l.25,0A5.23,5.23,0,0,0,2.72,14.3,4.47,4.47,0,0,0,5.06,15.07Z"/><path class="cls-1" d="M32.87,8a7.84,7.84,0,0,1-2.33,5.87,8.41,8.41,0,0,1-6.11,2.27A8.77,8.77,0,0,1,18.48,14a7,7,0,0,1-2.43-5.57,8.1,8.1,0,0,1,2.4-5.94A8.06,8.06,0,0,1,24.4.09a8.69,8.69,0,0,1,6.05,2.19A7.37,7.37,0,0,1,32.87,8ZM24.05,1.14a4.92,4.92,0,0,0-3.72,1.69Q18.77,4.53,18.77,8a7.08,7.08,0,0,0,1.82,5.16A5.89,5.89,0,0,0,25,15.07a4.65,4.65,0,0,0,3.75-1.75,7.45,7.45,0,0,0,1.44-4.88A8.07,8.07,0,0,0,28.54,3,5.68,5.68,0,0,0,24.05,1.14Z"/><path class="cls-1" d="M41.2,0h.72l1.56,3.11c.59,1.17,1.11,2.2,1.55,3.09l1.54,3c.57,1.14,1.1,2.2,1.6,3.18L55.07.08h.4Q56.7,9.58,57.71,16a9.11,9.11,0,0,0-1.41-.07A8.21,8.21,0,0,0,55,16q-.7-7.64-1.2-11.42H53.7q-3.47,5.81-6.12,11.36h-.51q-.41-.86-.9-1.86l-.91-1.88-.92-1.89-.93-1.91-.93-1.93c-.34-.69-.66-1.34-.95-2h-.12c-.18,1-.4,2.33-.66,3.89s-.52,3-.75,4.46-.42,2.47-.54,3.15a3.29,3.29,0,0,0-.78-.07,3.92,3.92,0,0,0-.88.07Q39.94,6.6,41.2,0Z"/><path class="cls-1" d="M64.89,5.21a34.43,34.43,0,0,0-.26-4.8l.05-.08A8.16,8.16,0,0,0,66,.41,8.25,8.25,0,0,0,67.22.33l0,.08A33.82,33.82,0,0,0,67,5.21v5.87a32.83,32.83,0,0,0,.27,4.81l0,.07a8.54,8.54,0,0,0-1.28-.07,8.24,8.24,0,0,0-1.26.07l-.05-.07a33.5,33.5,0,0,0,.26-4.81Z"/><path class="cls-1" d="M75.54.41l0-.08A4.53,4.53,0,0,0,76.7.41l.38,0,9,10.65a7.89,7.89,0,0,0,1.26,1.32c.12.06.21,0,.25-.22a2.51,2.51,0,0,0,.06-.5V5.21a34.43,34.43,0,0,0-.26-4.8l0-.08a6,6,0,0,0,.92.08,5.92,5.92,0,0,0,.92-.08l.06.08c-.11,1.25-.19,2.55-.25,3.92S89,6.83,89,7.74s0,2.18-.08,3.84-.07,2.93-.08,3.8c0,.49-.2.74-.5.74a1.37,1.37,0,0,1-1.11-.6L78,5l-.57-.66c-.11-.13-.21-.17-.3-.13a.37.37,0,0,0-.14.31c0,.16,0,.45,0,.86v5.74a34.75,34.75,0,0,0,.26,4.82l0,.07a6,6,0,0,0-.92-.07,5.79,5.79,0,0,0-.92.07l0-.07q.31-2.79.38-7.47T75.54.41Z"/><path class="cls-1" d="M108.7,13.1c-.06-2.23-.14-3.76-.26-4.6l0-.07a10,10,0,0,0,1.41.07l1.46-.07.06.07a12.66,12.66,0,0,0-.61,4.12v.15a1.15,1.15,0,0,0,.61,1.16V14a11.93,11.93,0,0,1-7.21,2.12A8.49,8.49,0,0,1,98,13.81a7.49,7.49,0,0,1-2.35-5.55,7.65,7.65,0,0,1,.79-3.49,7.27,7.27,0,0,1,2.12-2.58,10.52,10.52,0,0,1,6.31-2.1,17.71,17.71,0,0,1,2.86.24A17.27,17.27,0,0,1,110,.84l.77.26,0,.07a19.63,19.63,0,0,0-.49,2.93l-.24,0a6.32,6.32,0,0,0-2.35-2.18,6.57,6.57,0,0,0-3.19-.8A5.71,5.71,0,0,0,100.08,3a7.11,7.11,0,0,0-1.71,5,8.62,8.62,0,0,0,.36,2.46,8.24,8.24,0,0,0,1.08,2.26,5.21,5.21,0,0,0,2,1.69,6.73,6.73,0,0,0,3,.64c1.89,0,3.18-.31,3.89-.93Z"/><path class="cls-1" d="M122.22,15.07a3.31,3.31,0,0,0,2.16-.76,2.51,2.51,0,0,0,.93-2.05,2.82,2.82,0,0,0-.8-2.15,6.88,6.88,0,0,0-2.29-1.33,14.59,14.59,0,0,1-1.67-.72,9.41,9.41,0,0,1-1.39-.91,3.87,3.87,0,0,1-1.09-1.27,3.51,3.51,0,0,1-.38-1.64A3.46,3.46,0,0,1,118.52,2,4.84,4.84,0,0,1,120.59.5a6.41,6.41,0,0,1,2.26-.41,11.09,11.09,0,0,1,2.52.26,4.44,4.44,0,0,1,1.48.54l.38.28.06.07a11.54,11.54,0,0,0-.67,2.4l-.29,0a4.61,4.61,0,0,0-1.56-1.83,3.77,3.77,0,0,0-2.14-.7,4,4,0,0,0-1.61.28,2,2,0,0,0-.86.88,2.59,2.59,0,0,0-.36,1.28,2.71,2.71,0,0,0,.29,1.25,2.49,2.49,0,0,0,.85.92,8.22,8.22,0,0,0,1,.56,9.93,9.93,0,0,0,1.09.43q5,1.6,5,4.8a3.94,3.94,0,0,1-1.71,3.32A7.11,7.11,0,0,1,122,16.12a12.27,12.27,0,0,1-2.56-.26,7.51,7.51,0,0,1-1.71-.54l-.52-.28,0-.07a19.8,19.8,0,0,0,.62-2.47l.25,0a5.23,5.23,0,0,0,1.85,1.83A4.47,4.47,0,0,0,122.22,15.07Z"/></g></g></svg>