<?xml version="1.0" encoding="UTF-8"?><svg id="_圖層_2" xmlns="http://www.w3.org/2000/svg" viewBox="0 0 120.86 15.22"><defs><style>.cls-1{fill:#666464;}</style></defs><g id="_图层_1"><g><path class="cls-1" d="M4.78,14.22c.78,0,1.46-.24,2.04-.71,.58-.48,.87-1.12,.87-1.93,0-.88-.25-1.56-.75-2.03-.5-.48-1.22-.89-2.17-1.26-.62-.23-1.14-.46-1.57-.68-.43-.22-.87-.51-1.31-.85-.44-.34-.79-.74-1.03-1.2-.24-.46-.36-.97-.36-1.55,0-.78,.26-1.49,.78-2.12S2.46,.77,3.24,.47C3.92,.21,4.63,.08,5.37,.08c.9,0,1.69,.08,2.38,.25,.69,.16,1.15,.33,1.4,.51l.36,.26,.05,.07c-.35,.95-.56,1.71-.63,2.27l-.27,.02c-.34-.71-.83-1.28-1.48-1.72-.64-.44-1.31-.66-2.02-.66-.63,0-1.14,.09-1.53,.27-.32,.15-.59,.42-.81,.82s-.34,.81-.34,1.21c0,.44,.09,.83,.27,1.18,.18,.35,.45,.64,.8,.86,.35,.22,.66,.4,.94,.53s.62,.26,1.04,.4c3.14,1.01,4.71,2.52,4.71,4.53,0,1.3-.54,2.34-1.62,3.14-1.08,.79-2.44,1.19-4.07,1.19-.86,0-1.66-.08-2.42-.25s-1.29-.33-1.62-.5l-.49-.27-.05-.07c.33-1.12,.53-1.9,.58-2.34l.24-.02c.38,.66,.96,1.24,1.74,1.72,.78,.48,1.52,.72,2.21,.72Z"/><path class="cls-1" d="M31.03,7.53c0,2.27-.73,4.11-2.2,5.54-1.47,1.43-3.39,2.14-5.77,2.14-2.21,0-4.08-.66-5.61-1.99-1.53-1.33-2.3-3.08-2.3-5.26s.76-4.09,2.27-5.61C18.93,.84,20.8,.08,23.03,.08s4.18,.69,5.71,2.07c1.53,1.38,2.29,3.17,2.29,5.38ZM22.71,1.08c-1.36,0-2.54,.53-3.52,1.59-.98,1.06-1.47,2.7-1.47,4.91,0,2.07,.57,3.7,1.72,4.88,1.15,1.18,2.52,1.77,4.12,1.77,1.46,0,2.64-.55,3.55-1.64,.91-1.1,1.36-2.63,1.36-4.61,0-2.3-.51-4.02-1.52-5.17-1.01-1.15-2.43-1.72-4.23-1.72Z"/><path class="cls-1" d="M38.9,0h.67c.43,.86,.93,1.84,1.48,2.94,.55,1.1,1.04,2.07,1.46,2.91,.42,.84,.9,1.8,1.45,2.87,.54,1.08,1.04,2.08,1.51,3.01L51.99,.08h.38c.77,5.98,1.47,10.97,2.11,14.99-.25-.04-.7-.07-1.33-.07-.57,0-.99,.02-1.24,.07-.44-4.8-.82-8.39-1.13-10.78h-.09c-2.17,3.65-4.1,7.22-5.78,10.71h-.47c-.26-.53-.54-1.12-.85-1.75-.31-.63-.6-1.23-.86-1.78-.27-.55-.56-1.14-.87-1.79-.31-.64-.6-1.24-.88-1.81s-.57-1.17-.88-1.82-.62-1.27-.9-1.85h-.11c-.17,.97-.38,2.2-.63,3.67-.25,1.47-.48,2.88-.71,4.21-.22,1.34-.39,2.33-.5,2.97-.19-.04-.43-.07-.74-.07-.37,0-.64,.02-.83,.07,1.35-5.89,2.42-10.91,3.21-15.06Z"/><path class="cls-1" d="M61.25,4.92c0-1.95-.08-3.46-.24-4.54l.05-.07c.29,.04,.69,.07,1.2,.07s.91-.02,1.2-.07l.05,.07c-.16,1-.25,2.51-.25,4.54v5.54c0,1.95,.08,3.46,.25,4.54l-.05,.07c-.29-.04-.69-.07-1.21-.07s-.91,.02-1.19,.07l-.05-.07c.16-1.02,.24-2.54,.24-4.54V4.92Z"/><path class="cls-1" d="M71.31,.38l.05-.07c.13,.04,.48,.07,1.05,.07l.35-.04,8.54,10.06c.67,.78,1.06,1.2,1.18,1.25s.2-.02,.24-.21c.02-.11,.04-.27,.05-.48V4.92c0-1.95-.08-3.46-.24-4.54l.05-.07c.3,.04,.59,.07,.87,.07s.57-.02,.87-.07l.05,.07c-.1,1.18-.17,2.42-.23,3.71s-.09,2.36-.11,3.21c-.02,.85-.04,2.06-.08,3.63-.04,1.57-.06,2.77-.08,3.58-.03,.46-.19,.7-.47,.7-.41,0-.76-.19-1.05-.56l-8.72-9.98c-.26-.29-.44-.5-.54-.62s-.2-.16-.28-.12-.13,.14-.13,.29c0,.15-.01,.42-.01,.81v5.42c0,1.95,.08,3.46,.24,4.54l-.05,.07c-.3-.04-.59-.07-.87-.07s-.57,.02-.87,.07l-.05-.07c.2-1.75,.32-4.1,.36-7.05,.04-2.94,0-5.46-.12-7.57Z"/><path class="cls-1" d="M102.61,12.37c-.05-2.11-.13-3.55-.24-4.34l.05-.07c.3,.04,.74,.07,1.33,.07l1.37-.07,.05,.07c-.36,1-.55,2.3-.57,3.89v.15c0,.55,.19,.92,.57,1.09v.07c-1.82,1.33-4.09,2-6.8,2-2.43,0-4.38-.73-5.86-2.18-1.48-1.45-2.22-3.2-2.22-5.24,0-1.21,.25-2.31,.75-3.3s1.16-1.8,2-2.43c.83-.63,1.76-1.11,2.79-1.46s2.08-.52,3.16-.52c.88,0,1.78,.08,2.7,.23,.92,.15,1.63,.31,2.12,.48l.72,.25,.04,.06c-.25,1.03-.4,1.96-.46,2.77l-.23,.02c-.56-.87-1.3-1.56-2.22-2.06-.92-.5-1.93-.75-3.02-.75-1.71,0-3.1,.59-4.18,1.76s-1.61,2.75-1.61,4.73c0,.79,.11,1.56,.34,2.32,.23,.76,.57,1.47,1.02,2.13,.45,.66,1.09,1.19,1.9,1.6,.82,.4,1.75,.6,2.82,.6,1.78,0,3-.29,3.66-.87v-.98Z"/><path class="cls-1" d="M115.38,14.22c.78,0,1.46-.24,2.04-.71,.58-.48,.87-1.12,.87-1.93,0-.88-.25-1.56-.75-2.03-.5-.48-1.22-.89-2.17-1.26-.62-.23-1.14-.46-1.57-.68-.43-.22-.87-.51-1.31-.85-.44-.34-.79-.74-1.03-1.2-.24-.46-.36-.97-.36-1.55,0-.78,.26-1.49,.78-2.12s1.17-1.11,1.96-1.41c.68-.26,1.39-.39,2.13-.39,.9,0,1.69,.08,2.38,.25,.69,.16,1.15,.33,1.4,.51l.36,.26,.05,.07c-.35,.95-.56,1.71-.63,2.27l-.27,.02c-.34-.71-.83-1.28-1.48-1.72-.64-.44-1.31-.66-2.02-.66-.63,0-1.14,.09-1.53,.27-.32,.15-.59,.42-.81,.82s-.34,.81-.34,1.21c0,.44,.09,.83,.27,1.18,.18,.35,.45,.64,.8,.86,.35,.22,.66,.4,.94,.53s.62,.26,1.04,.4c3.14,1.01,4.71,2.52,4.71,4.53,0,1.3-.54,2.34-1.62,3.14-1.08,.79-2.44,1.19-4.07,1.19-.86,0-1.66-.08-2.42-.25s-1.29-.33-1.62-.5l-.49-.27-.05-.07c.33-1.12,.53-1.9,.58-2.34l.24-.02c.38,.66,.96,1.24,1.74,1.72,.78,.48,1.52,.72,2.21,.72Z"/></g></g></svg>