<svg xmlns="http://www.w3.org/2000/svg" viewBox="0 0 120.86 15.22"><defs><style>.cls-1{fill:#fff;}</style></defs><g id="圖層_2" data-name="圖層 2"><g id="图层_1" data-name="图层 1"><path class="cls-1" d="M4.78,14.22a3.15,3.15,0,0,0,2-.71,2.37,2.37,0,0,0,.87-1.93,2.7,2.7,0,0,0-.75-2A6.58,6.58,0,0,0,4.78,8.29,14.88,14.88,0,0,1,3.2,7.61a8.64,8.64,0,0,1-1.31-.86,3.67,3.67,0,0,1-1-1.2A3.28,3.28,0,0,1,.5,4a3.25,3.25,0,0,1,.78-2.12,4.62,4.62,0,0,1,2-1.41A5.91,5.91,0,0,1,5.37.08,10.48,10.48,0,0,1,7.75.33a4.22,4.22,0,0,1,1.4.51l.36.26.05.07a11,11,0,0,0-.63,2.27l-.27,0A4.25,4.25,0,0,0,7.18,1.74a3.5,3.5,0,0,0-2-.66,3.62,3.62,0,0,0-1.53.27,1.83,1.83,0,0,0-.81.82,2.53,2.53,0,0,0-.06,2.39,2.29,2.29,0,0,0,.8.87A8.78,8.78,0,0,0,4.51,6a9.77,9.77,0,0,0,1,.4q4.73,1.51,4.72,4.53A3.72,3.72,0,0,1,8.64,14a6.7,6.7,0,0,1-4.07,1.19A11.67,11.67,0,0,1,2.15,15a7.78,7.78,0,0,1-1.61-.5L.05,14.2l0-.07A17.35,17.35,0,0,0,.58,11.8l.24,0A5,5,0,0,0,2.56,13.5,4.26,4.26,0,0,0,4.78,14.22Z"/><path class="cls-1" d="M31,7.53a7.43,7.43,0,0,1-2.2,5.55,8,8,0,0,1-5.77,2.14,8.26,8.26,0,0,1-5.61-2A6.61,6.61,0,0,1,15.15,8a7.62,7.62,0,0,1,2.27-5.61A7.59,7.59,0,0,1,23,.08a8.15,8.15,0,0,1,5.71,2.08A6.89,6.89,0,0,1,31,7.53ZM22.71,1.08a4.62,4.62,0,0,0-3.52,1.59,7.06,7.06,0,0,0-1.47,4.91,6.7,6.7,0,0,0,1.72,4.88,5.58,5.58,0,0,0,4.12,1.76,4.37,4.37,0,0,0,3.54-1.64A7,7,0,0,0,28.46,8,7.64,7.64,0,0,0,26.94,2.8,5.34,5.34,0,0,0,22.71,1.08Z"/><path class="cls-1" d="M38.9,0h.67l1.48,2.94,1.46,2.91L44,8.72l1.51,3L52,.08h.37q1.16,9,2.12,15A10,10,0,0,0,53.15,15a8.94,8.94,0,0,0-1.24.06q-.66-7.2-1.14-10.77h-.08Q47.44,9.75,44.91,15h-.47c-.26-.54-.55-1.12-.85-1.75l-.87-1.78-.86-1.79L41,7.88,40.1,6.06l-.9-1.85h-.11c-.17,1-.38,2.2-.63,3.67s-.48,2.87-.7,4.21-.39,2.33-.51,3a3.6,3.6,0,0,0-.74-.06,4.27,4.27,0,0,0-.83.06Q37.71,6.23,38.9,0Z"/><path class="cls-1" d="M61.25,4.92A32.86,32.86,0,0,0,61,.38l.05-.06a9,9,0,0,0,1.19.06,9.28,9.28,0,0,0,1.2-.06l0,.06a31,31,0,0,0-.25,4.54v5.54A31.08,31.08,0,0,0,63.5,15l0,.06a9.28,9.28,0,0,0-1.2-.06,8.9,8.9,0,0,0-1.19.06L61,15a31.88,31.88,0,0,0,.24-4.54Z"/><path class="cls-1" d="M71.31.38l0-.06a5.13,5.13,0,0,0,1,.06l.35,0L81.3,10.4a7.39,7.39,0,0,0,1.18,1.24c.12.06.2,0,.25-.21a2.64,2.64,0,0,0,0-.47v-6A32.86,32.86,0,0,0,82.53.38l0-.06a6.58,6.58,0,0,0,.87.06,6.58,6.58,0,0,0,.87-.06l.05.06c-.1,1.18-.18,2.42-.23,3.71S84,6.45,84,7.3s0,2.07-.08,3.64-.06,2.76-.08,3.58c0,.47-.19.7-.47.7a1.33,1.33,0,0,1-1.05-.56l-8.71-10-.55-.63c-.1-.12-.2-.16-.28-.12a.3.3,0,0,0-.13.29c0,.15,0,.42,0,.81v5.42A31.23,31.23,0,0,0,72.91,15l0,.06a6.34,6.34,0,0,0-1.74,0L71.07,15q.3-2.64.36-7C71.46,5,71.42,2.48,71.31.38Z"/><path class="cls-1" d="M102.61,12.37A41.27,41.27,0,0,0,102.36,8l0-.06a11,11,0,0,0,1.34.06L105.12,8l0,.06a12.21,12.21,0,0,0-.57,3.89v.15a1.08,1.08,0,0,0,.57,1.09v.07a11.23,11.23,0,0,1-6.8,2A8,8,0,0,1,92.51,13,7.08,7.08,0,0,1,90.29,7.8,7.21,7.21,0,0,1,91,4.5a6.92,6.92,0,0,1,2-2.43A10,10,0,0,1,95.83.61,9.75,9.75,0,0,1,99,.08a16.78,16.78,0,0,1,2.7.23,16.26,16.26,0,0,1,2.12.48l.73.25,0,.06a17.49,17.49,0,0,0-.46,2.77l-.23,0a6.1,6.1,0,0,0-2.22-2.06,6.23,6.23,0,0,0-3-.75,5.43,5.43,0,0,0-4.18,1.76,6.75,6.75,0,0,0-1.61,4.73,8,8,0,0,0,.34,2.32,7.74,7.74,0,0,0,1,2.13,4.88,4.88,0,0,0,1.91,1.6,6.28,6.28,0,0,0,2.81.6,5.74,5.74,0,0,0,3.67-.87Z"/><path class="cls-1" d="M115.38,14.22a3.15,3.15,0,0,0,2-.71,2.37,2.37,0,0,0,.87-1.93,2.7,2.7,0,0,0-.75-2,6.58,6.58,0,0,0-2.16-1.25,14.88,14.88,0,0,1-1.58-.68,8.64,8.64,0,0,1-1.31-.86,3.67,3.67,0,0,1-1-1.2A3.28,3.28,0,0,1,111.1,4a3.25,3.25,0,0,1,.78-2.12,4.56,4.56,0,0,1,2-1.41A5.91,5.91,0,0,1,116,.08a10.54,10.54,0,0,1,2.38.25,4.22,4.22,0,0,1,1.4.51l.36.26,0,.07a11,11,0,0,0-.63,2.27l-.27,0a4.33,4.33,0,0,0-1.48-1.72,3.5,3.5,0,0,0-2-.66,3.62,3.62,0,0,0-1.53.27,1.78,1.78,0,0,0-.81.82,2.52,2.52,0,0,0-.34,1.21,2.54,2.54,0,0,0,.28,1.18,2.29,2.29,0,0,0,.8.87,8.78,8.78,0,0,0,.94.53,9.77,9.77,0,0,0,1,.4q4.73,1.51,4.72,4.53A3.72,3.72,0,0,1,119.24,14a6.7,6.7,0,0,1-4.07,1.19,11.67,11.67,0,0,1-2.42-.25,8.14,8.14,0,0,1-1.62-.5l-.48-.27-.05-.07a17.35,17.35,0,0,0,.58-2.33l.24,0a5,5,0,0,0,1.74,1.73A4.26,4.26,0,0,0,115.38,14.22Z"/></g></g></svg>