<svg xmlns="http://www.w3.org/2000/svg" viewBox="0 0 171.7 51.88"><defs><style>.cls-1{fill:#0e0d0d;}</style></defs><g id="圖層_2" data-name="圖層 2"><g id="图层_1" data-name="图层 1"><path class="cls-1" d="M.45,0H9.74C13.22,0,16,1.57,16,4.93c0,2.6-1.23,4.34-3.75,4.93v.05c1.68.45,1.79,1.93,2.77,4.31L17,19.54H11.54L10.42,16c-1.07-3.36-1.74-4.2-3.67-4.2H5.66v7.72H.45ZM5.66,8.12H7c1.68,0,3.81-.06,3.81-2.27C10.84,4,9,3.7,7,3.7H5.66Z"/><path class="cls-1" d="M30.88,0h5.21V19.54H30.88Z"/><path class="cls-1" d="M51.35,0h7.11C65.27,0,70,2.13,70,9.69c0,7.31-4.9,9.85-11.57,9.85H51.35Zm5.21,15.68h2c3.89,0,6.07-2,6.07-5.91s-2.27-5.91-6.07-5.91h-2Z"/><path class="cls-1" d="M84.36,0H98.14V3.7H89.57v4h8.09v3.69H89.57v4.43h8.88v3.69H84.36Z"/><path class="cls-1" d="M133.17,0h5.21V19.54h-5.21Z"/><path class="cls-1" d="M153.72,0h6.64L167,13.27H167L166.94,0h4.76V19.54h-6.47L158.4,6.19h-.06l.17,13.35h-4.79Z"/><path class="cls-1" d="M.64,46.73A11.44,11.44,0,0,0,6,48c1.65,0,3.22-.34,3.22-1.91C9.24,42.47,0,44.77,0,37.66c0-4.71,4.59-6,8.51-6a16.41,16.41,0,0,1,5,.73l-.33,4a10.61,10.61,0,0,0-4.34-.89c-1.32,0-3.5.11-3.5,1.82,0,3.16,9.24,1,9.24,8.09,0,5.07-4.26,6.44-8.6,6.44A20.43,20.43,0,0,1,.2,51Z"/><path class="cls-1" d="M32.42,35.86H27.61V32H42.45v3.86H37.63V51.54H32.42Z"/><path class="cls-1" d="M61.71,44.18,54.49,32h6l3.84,7.84L68.1,32h6L66.92,44.18v7.36H61.71Z"/><path class="cls-1" d="M87.58,32h5.21V47.68h8.06v3.86H87.58Z"/><path class="cls-1" d="M114.38,32h13.78v3.7h-8.57v4h8.09v3.69h-8.09v4.43h8.87v3.69H114.38Z"/></g></g></svg>